<svg width="64" height="64" viewBox="0 0 64 64" fill="none" xmlns="http://www.w3.org/2000/svg">
<path d="M61.5 7.79007C61.5 6.38708 60.9426 5.04154 59.9506 4.04948C58.9585 3.05741 57.613 2.50007 56.21 2.50007H7.78996C6.51878 2.49346 5.28805 2.94656 4.32461 3.77584C3.36116 4.60512 2.72993 5.75469 2.54726 7.0127C2.36459 8.2707 2.64279 9.55233 3.33058 10.6214C4.01837 11.6904 5.0694 12.4749 6.28996 12.8301V41.0001C6.28996 42.4588 6.86942 43.8577 7.90087 44.8892C8.93232 45.9206 10.3313 46.5001 11.79 46.5001H23.57L16 59.2301C15.7978 59.5727 15.739 59.9813 15.8364 60.367C15.9337 60.7527 16.1794 61.0844 16.52 61.2901C16.7537 61.4265 17.0193 61.499 17.29 61.5001C17.5498 61.5005 17.8053 61.4335 18.0314 61.3055C18.2576 61.1776 18.4466 60.9931 18.58 60.7701L27.1 46.4901H36.98L45.5 60.7701C45.6333 60.9931 45.8224 61.1776 46.0485 61.3055C46.2746 61.4335 46.5301 61.5005 46.79 61.5001C47.0606 61.499 47.3262 61.4265 47.56 61.2901C47.8872 61.0717 48.1163 60.7342 48.1985 60.3495C48.2807 59.9647 48.2094 59.5631 48 59.2301L40.43 46.4901H52.21C53.6686 46.4901 55.0676 45.9106 56.099 44.8792C57.1305 43.8477 57.71 42.4488 57.71 40.9901V12.8301C58.8015 12.5124 59.7607 11.8496 60.444 10.941C61.1272 10.0324 61.4977 8.92689 61.5 7.79007V7.79007ZM54.71 41.0001C54.71 41.6631 54.4466 42.299 53.9777 42.7678C53.5089 43.2367 52.873 43.5001 52.21 43.5001H11.79C11.1269 43.5001 10.491 43.2367 10.0222 42.7678C9.55335 42.299 9.28996 41.6631 9.28996 41.0001V13.0701H54.71V41.0001ZM56.21 10.0801H7.78996C7.47717 10.1008 7.16347 10.057 6.86828 9.95158C6.57308 9.84612 6.30268 9.68117 6.07382 9.46696C5.84497 9.25275 5.66252 8.99384 5.5378 8.70625C5.41307 8.41867 5.34871 8.10854 5.34871 7.79507C5.34871 7.4816 5.41307 7.17147 5.5378 6.88389C5.66252 6.5963 5.84497 6.33739 6.07382 6.12318C6.30268 5.90897 6.57308 5.74402 6.86828 5.63856C7.16347 5.5331 7.47717 5.48937 7.78996 5.51007H56.21C56.5227 5.48937 56.8364 5.5331 57.1316 5.63856C57.4268 5.74402 57.6972 5.90897 57.9261 6.12318C58.1549 6.33739 58.3374 6.5963 58.4621 6.88389C58.5868 7.17147 58.6512 7.4816 58.6512 7.79507C58.6512 8.10854 58.5868 8.41867 58.4621 8.70625C58.3374 8.99384 58.1549 9.25275 57.9261 9.46696C57.6972 9.68117 57.4268 9.84612 57.1316 9.95158C56.8364 10.057 56.5227 10.1008 56.21 10.0801Z" fill="#444444" id="id_101"></path>
<path d="M19.4099 29.76H23.1599C23.4265 29.7631 23.6889 29.694 23.9195 29.5603C24.1501 29.4265 24.3402 29.2329 24.4699 29L27.7699 23.08L31.4599 37.92C31.5332 38.2069 31.6897 38.4657 31.9098 38.6638C32.1298 38.8619 32.4036 38.9904 32.6966 39.0332C32.9896 39.076 33.2887 39.0311 33.5562 38.9042C33.8237 38.7772 34.0477 38.574 34.1999 38.32L39.1999 29.77H44.5599C44.9577 29.77 45.3393 29.612 45.6206 29.3307C45.9019 29.0494 46.0599 28.6678 46.0599 28.27C46.0599 27.8722 45.9019 27.4907 45.6206 27.2094C45.3393 26.9281 44.9577 26.77 44.5599 26.77H38.3799C38.1174 26.7688 37.8592 26.8365 37.6311 26.9664C37.403 27.0963 37.2129 27.2837 37.0799 27.51L33.4799 33.63L29.7599 18.63C29.6825 18.3415 29.5207 18.0826 29.2953 17.8866C29.0699 17.6906 28.791 17.5663 28.4945 17.5298C28.198 17.4933 27.8973 17.5461 27.6311 17.6816C27.3648 17.817 27.145 18.0289 26.9999 18.29L22.2899 26.76H19.4099C19.0121 26.76 18.6306 26.9181 18.3493 27.1994C18.0679 27.4807 17.9099 27.8622 17.9099 28.26C17.9099 28.6578 18.0679 29.0394 18.3493 29.3207C18.6306 29.602 19.0121 29.76 19.4099 29.76V29.76Z" fill="#444444" id="id_102"></path>
</svg>